# xmcd CD database file
#
# Track frame offsets:
#	150
#	14066
#	26169
#	38409
#	49202
#	61451
#	74434
#	85171
#	98050
#	109135
#	121292
#	133010
#	146276
#	157385
#	170197
#	182162
#
# Disc length: 2601 seconds
#
# Revision: 0
# Processed by: cddbd v1.5.2PL0 Copyright (c) Steve Scherf et al.
# Submitted via: CDex 1.51
#
DISCID=ea0a2710
DTITLE=Michael Feinstein - Soundies - A Musical History
DYEAR=2007
DGENRE=Jazz
TTITLE0=Duke Ellington - Cottontail (from "Hot Chocolate")
TTITLE1=Cab Calloway - Blowtop Blues
TTITLE2=The King Cole Trio - Got A Pennry, Benny?
TTITLE3=Will Bradley - Boardwalk Boogie
TTITLE4=Fats Waller - Honeysuckle Rose
TTITLE5=Kay Starr and Jimmy Dodd - Stop That Dancin' Up There
TTITLE6=Count Basie - Take Me Back, Baby
TTITLE7=The Mel Tones - Lullaby of Broadway
TTITLE8=Louis Armstrong - Shine
TTITLE9=Helen O'Connell with Jimmy Dorsey - Man That's Groovy
TTITLE10=Dorothy Dandridge (feat. Cee Pee Johnson) - Jungle Jig
TTITLE11=Doris Day with Les Brown - My Lost Horizon
TTITLE12=The Mills Brothers - Up A Lazy River
TTITLE13=Walter Liberace - Tiger Rag
TTITLE14=International Sweethearts of Rhythm - She's Crazy from the Heat
TTITLE15=Michael Feinstein - The Songs of Yesterday Are Here to Stay
EXTD=YEAR: 2007
EXTT0=
EXTT1=
EXTT2=
EXTT3=
EXTT4=
EXTT5=
EXTT6=
EXTT7=
EXTT8=
EXTT9=
EXTT10=
EXTT11=
EXTT12=
EXTT13=
EXTT14=
EXTT15=
PLAYORDER=
